<?xml version="1.0" encoding="utf-8"?>
<!-- Generator: Adobe Illustrator 16.0.0, SVG Export Plug-In . SVG Version: 6.00 Build 0)  -->
<!DOCTYPE svg PUBLIC "-//W3C//DTD SVG 1.1//EN" "http://www.w3.org/Graphics/SVG/1.1/DTD/svg11.dtd">
<svg version="1.1" id="Layer_1" xmlns="http://www.w3.org/2000/svg" xmlns:xlink="http://www.w3.org/1999/xlink" x="0px" y="0px"
	 width="1445.67px" height="1445.67px" viewBox="0 0 1445.67 1445.67" enable-background="new 0 0 1445.67 1445.67"
	 xml:space="preserve">
<g>
	<g>
	</g>
	<g>
	</g>
	<g>
		<g>
			<g>
				<g>
					<path d="M96.798,837.885l17.047-8.955l231.07-121.493l201.52-106.013l-19.901-35.399l-41.809-74.32l326.912-183.917
						l40.698,72.396l148.338,263.626L673.734,827.755l-61.834-109.927L96.798,1027.236V837.885z M816.413,243.484
						c-2.008,14.712-9.248,27.193-21.202,33.877L467.228,461.871c-23.911,13.48-57.615-1.117-75.301-32.603
						c-8.87-15.741-11.981-32.688-10.009-47.403c2.066-14.715,9.271-27.196,21.222-33.922l327.963-184.507
						c23.904-13.438,57.606,1.16,75.319,32.646C815.301,211.766,818.471,228.728,816.413,243.484z M1184.018,1053.824
						c18.119,16.7,29.303,39.775,29.303,65.261H690.339c0-50.997,44.763-92.312,100.01-92.312h322.996
						C1140.945,1026.772,1165.93,1037.124,1184.018,1053.824z M668.959,892.046c2.035-14.759,9.239-27.194,21.229-33.922
						l15.865-8.929l296.195-166.663l15.895-8.946c23.881-13.423,57.615,1.161,75.328,32.648
						c8.874,15.714,12.021,32.688,9.981,47.431c-2.03,14.696-9.27,27.163-21.192,33.863L754.269,972.066
						c-23.904,13.422-57.607-1.175-75.294-32.662C670.102,923.69,666.958,906.743,668.959,892.046z M1329.5,1272.541H574.13v-25.569
						c0-52.563,44.859-95.14,100.22-95.14h554.959c55.331,0,100.19,42.576,100.19,95.14V1272.541z"/>
				</g>
			</g>
		</g>
	</g>
</g>
</svg>
